<?xml version="1.0" standalone="no"?>
<svg xmlns:xlink="http://www.w3.org/1999/xlink" id="wave" style="transform:rotate(0deg); transition: 0.3s" viewBox="0 0 1440 220" version="1.1" xmlns="http://www.w3.org/2000/svg"><defs><linearGradient id="sw-gradient-0" x1="0" x2="0" y1="1" y2="0"><stop stop-color="rgba(228.105, 122.283, 88.296, 1)" offset="0%"/><stop stop-color="rgba(255, 179, 11, 1)" offset="100%"/></linearGradient></defs><path style="transform:translate(0, 0px); opacity:1" fill="url(#sw-gradient-0)" d="M0,44L80,66C160,88,320,132,480,143C640,154,800,132,960,132C1120,132,1280,154,1440,146.7C1600,139,1760,103,1920,91.7C2080,81,2240,95,2400,95.3C2560,95,2720,81,2880,80.7C3040,81,3200,95,3360,95.3C3520,95,3680,81,3840,95.3C4000,110,4160,154,4320,172.3C4480,191,4640,183,4800,165C4960,147,5120,117,5280,121C5440,125,5600,161,5760,176C5920,191,6080,183,6240,157.7C6400,132,6560,88,6720,84.3C6880,81,7040,117,7200,128.3C7360,139,7520,125,7680,132C7840,139,8000,169,8160,183.3C8320,198,8480,198,8640,176C8800,154,8960,110,9120,99C9280,88,9440,110,9600,128.3C9760,147,9920,161,10080,165C10240,169,10400,161,10560,132C10720,103,10880,51,11040,25.7C11200,0,11360,0,11440,0L11520,0L11520,220L11440,220C11360,220,11200,220,11040,220C10880,220,10720,220,10560,220C10400,220,10240,220,10080,220C9920,220,9760,220,9600,220C9440,220,9280,220,9120,220C8960,220,8800,220,8640,220C8480,220,8320,220,8160,220C8000,220,7840,220,7680,220C7520,220,7360,220,7200,220C7040,220,6880,220,6720,220C6560,220,6400,220,6240,220C6080,220,5920,220,5760,220C5600,220,5440,220,5280,220C5120,220,4960,220,4800,220C4640,220,4480,220,4320,220C4160,220,4000,220,3840,220C3680,220,3520,220,3360,220C3200,220,3040,220,2880,220C2720,220,2560,220,2400,220C2240,220,2080,220,1920,220C1760,220,1600,220,1440,220C1280,220,1120,220,960,220C800,220,640,220,480,220C320,220,160,220,80,220L0,220Z"/></svg>